<svg
  xmlns="http://www.w3.org/2000/svg"
  viewBox="0 0 64 64"
  role="img"
  aria-label="AstryxKit"
>
  <rect width="64" height="64" rx="14" fill="#1a2652" />
  <path
    d="M14 18c0-2.2 1.8-4 4-4h28c2.2 0 4 1.8 4 4v28c0 2.2-1.8 4-4 4H18c-2.2 0-4-1.8-4-4V18Z"
    fill="#f4f7fa"
  />
  <path d="M14 24h36" stroke="#556cd6" stroke-width="5" />
  <path
    d="M25 42 31.5 26h4L42 42h-4.4l-1.1-3.2h-6l-1.1 3.2H25Zm6.5-6.4h4l-2-5.8-2 5.8Z"
    fill="#1a2652"
  />
  <path
    d="M43 42h-4V26h4v6.2l5-6.2h4.8l-6.2 7.4L53 42h-5l-5-6.8V42Z"
    fill="#556cd6"
  />
</svg>
